<?xml version="1.0" encoding="UTF-8" standalone="no"?>
<svg width="94px" height="30px" viewBox="0 0 94 30" version="1.1" xmlns="http://www.w3.org/2000/svg" xmlns:xlink="http://www.w3.org/1999/xlink">
    <!-- Generator: Sketch 48.2 (47327) - http://www.bohemiancoding.com/sketch -->
    <title>4</title>
    <desc>Created with Sketch.</desc>
    <defs></defs>
    <g id="Page-1" stroke="none" stroke-width="1" fill="none" fill-rule="evenodd">
        <g id="sprite-bodytypes" transform="translate(-372.000000, -10.000000)" fill="#232323" fill-rule="nonzero">
            <g id="cars">
                <path d="M466,27.19985 L466,27.2938382 C466,27.6697931 465.890348,29.2049192 465.671041,31.8992626 C465.451734,34.5936059 465.310753,36.0034156 465.248094,36.1287339 L465.248094,36.5986751 L454.533433,36.5986751 L454.533433,30.7714035 C454.533433,28.5783334 453.671883,26.6985871 451.948756,25.1321085 C450.22563,23.5656298 448.173574,22.7824022 445.792526,22.7824022 C443.411478,22.7824022 441.375087,23.5656298 439.68329,25.1321085 C437.991493,26.6985871 437.145607,28.5783334 437.145607,30.7714035 L437.145607,36.5986751 L396.542682,36.5986751 L396.542682,30.7714035 C396.542682,28.5783334 395.696796,26.6985871 394.005,25.1321085 C392.313203,23.5656298 390.276811,22.7824022 387.895763,22.7824022 C385.514716,22.7824022 383.478324,23.5656298 381.786527,25.1321085 C380.09473,26.6985871 379.248844,28.5783334 379.248844,30.7714035 L379.248844,36.5046869 L378.778903,36.5046869 C376.77381,36.3793686 375.207355,36.1913939 374.07949,35.9407574 L373.891514,35.9407574 C373.578218,35.8780982 373.296256,35.7214527 373.045619,35.4708161 C372.794983,35.2201795 372.638337,34.9695467 372.575678,34.7189101 C372.137064,33.403068 371.94909,32.3692076 372.011749,31.6172978 L372.105737,30.583427 C372.105737,26.9491965 372.669661,24.7874883 373.797525,24.0982377 C374.737413,23.5343054 376.397855,22.7824069 378.778903,21.8425197 C381.15995,20.9026325 383.180678,20.2133922 384.841145,19.7747781 C386.501612,19.3361641 390.433415,18.9602149 396.636671,18.6469191 C401.148129,18.4589417 404.469014,18.3649544 406.599425,18.3649544 C407.226017,18.3649544 408.761143,17.644385 411.204849,16.2032246 C413.209942,15.0753599 414.776397,14.2294741 415.904262,13.6655418 C417.784036,12.7256546 419.507137,12.0050852 421.073616,11.503812 C424.269232,10.5012657 427.214168,10 429.908512,10 C432.352218,10 435.046521,10.4386075 437.991501,11.3158355 L438.555431,11.503812 C438.806067,11.6291303 438.962713,11.6917885 439.025372,11.6917885 C440.153237,12.0677434 443.474122,13.7908441 448.988127,16.8611423 L449.834021,17.3310836 C451.588477,17.3310836 453.060945,17.5190582 454.251469,17.8950131 C454.940719,18.1456497 456.3192,18.4276116 458.386952,18.7409074 C460.204067,18.991544 461.331915,19.1168604 461.770529,19.1168604 C462.209143,19.1168604 462.538098,19.2108477 462.757405,19.3988251 C462.976712,19.5868026 463.086364,19.8061063 463.086364,20.0567429 L463.086364,20.4326959 C463.023705,20.8713099 463.086363,21.3725756 463.274341,21.9365079 C463.462318,22.5004402 463.634628,22.8607249 463.791276,23.0173728 C463.947924,23.1740207 464.120234,23.5969636 464.308211,24.2862142 L464.308211,24.6621672 L465.718035,25.7900262 C465.780694,25.9780037 465.843353,26.2286365 465.906012,26.5419322 C465.968671,26.855228 466,27.0745317 466,27.19985 Z M377.557056,25.4140732 C378.120988,24.8501409 378.40295,24.5211853 378.40295,24.4271966 C378.40295,24.3332079 378.261969,24.223556 377.980003,24.0982377 C377.698037,23.9729194 377.416075,23.9102612 377.134108,23.9102612 C376.852142,23.9102612 376.350877,24.0355776 375.630296,24.2862142 C374.909716,24.5368508 374.23614,24.8188127 373.609549,25.1321085 C373.233594,25.8213591 372.951632,26.9178777 372.763655,28.4216973 C373.703542,28.3590381 375.17601,27.4504941 377.181103,25.696038 L377.275091,25.6020497 C377.400409,25.4767314 377.494396,25.4140732 377.557056,25.4140732 Z M401.242095,22.5004374 L401.242095,22.1244844 C401.242095,21.9991661 401.179437,21.8738497 401.054118,21.7485314 C400.9288,21.6232131 400.803484,21.5605549 400.678165,21.5605549 L397.858518,21.5605549 C397.482563,21.5605549 397.294588,21.7485295 397.294588,22.1244844 L397.294588,22.5004374 C397.294588,22.8763923 397.482563,23.0643669 397.858518,23.0643669 L400.678165,23.0643669 C401.05412,23.0643669 401.242095,22.8763923 401.242095,22.5004374 Z M410.358955,18.6469191 C410.860228,18.6469191 411.408488,18.4276154 412.00375,17.9890014 C412.599012,17.5503873 415.402966,15.952603 420.415698,13.1956005 L419.75778,12.5376828 C418.065983,13.1642743 415.74763,14.292122 412.80265,15.9212598 L408.855143,18.1769779 C409.231098,18.4276145 409.481731,18.5685954 409.607049,18.599925 C409.732368,18.6312546 409.983,18.6469191 410.358955,18.6469191 Z M429.250594,18.8348956 C430.817072,18.8348956 432.007578,18.8035665 432.822147,18.7409074 L435.453818,13.9475066 C431.443633,13.0076193 427.746799,12.8823029 424.363205,13.5715535 C422.796726,13.9475084 421.167613,14.5740905 419.475816,15.4513186 C418.285292,16.1405692 417.157444,16.8924677 416.092239,17.7070366 L414.776403,18.8348956 L429.250594,18.8348956 Z M440.623172,18.2709661 C440.999127,18.208307 441.296754,18.0359969 441.516061,17.7540307 C441.735368,17.4720646 441.719703,17.1274444 441.469066,16.72016 C441.21843,16.3128755 440.623177,15.8899326 439.68329,15.4513186 C439.307335,15.2633411 438.618094,14.9813792 437.615548,14.6054243 L435.35983,18.6469191 L438.085489,18.4589426 C439.589309,18.3336243 440.435195,18.2709661 440.623172,18.2709661 Z M458.574928,25.0381202 C459.013542,24.9128019 460.673985,24.7874855 463.556305,24.6621672 L463.462317,24.2862142 C463.336999,24.0982368 462.976714,23.6439647 462.381452,22.9233846 C461.78619,22.2028044 461.363248,21.7641969 461.112611,21.607549 C460.861974,21.4509012 460.658335,21.3725784 460.501687,21.3725784 C460.345039,21.3725784 460.266717,21.4039075 460.266717,21.4665667 C460.141398,21.5292258 459.671462,21.7798586 458.856893,22.2184727 L457.259093,23.1583552 C457.071115,23.3463326 456.977128,23.4873136 456.977128,23.5813023 C456.977128,23.675291 457.039786,23.816272 457.165104,24.0042494 C457.290423,24.1922269 457.760359,24.536847 458.574928,25.0381202 Z M387.989751,23.8162729 C390.182822,23.8162729 392.062568,24.5995005 393.629047,26.1659792 C395.195525,27.7324579 395.978753,29.6278687 395.978753,31.8522684 C395.978753,34.0766682 395.195525,35.9720789 393.629047,37.5385576 C392.062568,39.1050363 390.167157,39.8882639 387.942757,39.8882639 C385.718358,39.8882639 383.822947,39.1050363 382.256468,37.5385576 C380.689989,35.9720789 379.906762,34.0766682 379.906762,31.8522684 C379.906762,29.6278687 380.689989,27.7324579 382.256468,26.1659792 C383.822947,24.5995005 385.734022,23.8162729 387.989751,23.8162729 Z M387.989751,37.3505811 C389.493571,37.3505811 390.778064,36.8179864 391.84327,35.7527809 C392.908475,34.6875753 393.44107,33.4030821 393.44107,31.8992626 C393.44107,30.395443 392.908475,29.1109498 391.84327,28.0457442 C390.778064,26.9805387 389.493571,26.447944 387.989751,26.447944 C386.485932,26.447944 385.201439,26.9805387 384.136233,28.0457442 C383.071028,29.1109498 382.538433,30.395443 382.538433,31.8992626 C382.538433,33.4030821 383.071028,34.6875753 384.136233,35.7527809 C385.201439,36.8179864 386.485932,37.3505811 387.989751,37.3505811 Z M387.613798,31.8992626 C387.613798,31.648626 387.739115,31.5233095 387.989751,31.5233095 C388.240388,31.5233095 388.365704,31.648626 388.365704,31.8992626 C388.365704,31.9619217 388.334375,32.0402445 388.271716,32.1342332 C388.209057,32.2282219 388.11507,32.2752156 387.989751,32.2752156 C387.739115,32.2752156 387.613798,32.1498991 387.613798,31.8992626 Z M387.707787,30.0194975 L387.707787,28.7976503 C387.707787,28.6096728 387.817439,28.5156855 388.036746,28.5156855 C388.256053,28.5156855 388.365704,28.6096728 388.365704,28.7976503 L388.365704,30.0194975 C388.365704,30.0821567 388.334375,30.1604794 388.271716,30.2544682 C388.209057,30.3484569 388.130734,30.3954505 388.036746,30.3954505 C387.942757,30.3954505 387.864434,30.3484569 387.801775,30.2544682 C387.739116,30.1604794 387.707787,30.0821567 387.707787,30.0194975 Z M387.425822,30.4894388 C387.613799,30.6147571 387.660793,30.755738 387.566804,30.9123859 C387.472816,31.0690338 387.300506,31.0846983 387.049869,30.95938 C386.98721,30.95938 386.940216,30.9123864 386.908887,30.8183977 C386.877557,30.7244089 386.893222,30.6147571 386.955881,30.4894388 C387.01854,30.3641205 387.175185,30.3641205 387.425822,30.4894388 Z M388.553681,30.6774153 C388.61634,30.6147561 388.678998,30.5677625 388.741657,30.5364329 C388.804317,30.5051033 388.866975,30.5207679 388.929634,30.583427 C388.992293,30.6460862 389.039287,30.7087444 389.070616,30.7714035 C389.101946,30.8340627 389.086281,30.8967209 389.023622,30.95938 C388.960963,31.0220392 388.898305,31.0690328 388.835646,31.1003624 C388.772987,31.131692 388.710328,31.1160274 388.647669,31.0533683 C388.58501,30.9907091 388.538016,30.9280509 388.506687,30.8653918 C388.475357,30.8027326 388.491022,30.7400744 388.553681,30.6774153 Z M386.391951,31.9932508 C386.517269,31.8679325 386.673915,31.8366034 386.861892,31.8992626 C387.04987,31.9619217 387.081199,32.0872381 386.955881,32.2752156 C386.830562,32.463193 386.705246,32.5258512 386.579928,32.4631921 C386.454609,32.4005329 386.391951,32.2438874 386.391951,31.9932508 Z M389.399575,31.5233095 C389.336916,31.4606504 389.336916,31.3979922 389.399575,31.335333 L389.587552,31.1473565 L390.715411,30.7714035 C390.903388,30.7714035 391.060034,30.8340617 391.185352,30.95938 C391.185352,31.2100166 391.091365,31.335333 390.903387,31.335333 L389.775528,31.711286 C389.712869,31.7739452 389.634546,31.7739452 389.540558,31.711286 C389.446569,31.6486269 389.399575,31.5859687 389.399575,31.5233095 Z M391.467317,29.5495563 L389.68154,30.4894388 C389.368244,30.176143 389.117611,29.9881684 388.929634,29.9255093 L389.211599,27.7637795 C390.276804,28.2023935 391.060032,28.7976465 391.561305,29.5495563 L391.467317,29.5495563 Z M389.493563,32.4631921 C389.368245,32.5885104 389.242929,32.6198395 389.11761,32.5571803 C388.992292,32.4945212 388.913969,32.431863 388.88264,32.3692038 C388.85131,32.3065447 388.866975,32.2282219 388.929634,32.1342332 C388.992293,32.0402445 389.101945,32.0089154 389.258593,32.0402449 C389.415241,32.0715745 389.493563,32.2125555 389.493563,32.4631921 Z M388.08374,32.8391451 C388.209058,32.9644634 388.224723,33.1054443 388.130734,33.2620922 C388.036745,33.4187401 387.911429,33.4344046 387.754781,33.3090863 C387.598133,33.183768 387.566804,33.0427871 387.660793,32.8861392 C387.754781,32.7294913 387.895762,32.7138268 388.08374,32.8391451 Z M386.109986,31.6172978 L384.982127,31.2413448 L384.794151,31.0533683 C384.731492,30.9907091 384.731492,30.9280509 384.794151,30.8653918 C384.794151,30.6774143 384.919467,30.583427 385.170104,30.583427 L386.297963,31.0533683 C386.423281,31.0533683 386.501604,31.0846974 386.532934,31.1473565 C386.564263,31.2100157 386.564263,31.304003 386.532934,31.4293213 C386.501604,31.5546396 386.360623,31.6172978 386.109986,31.6172978 Z M389.305587,33.1211098 L389.963505,34.1549806 C390.088823,34.2802989 390.088823,34.4056153 389.963505,34.5309336 C389.838186,34.6562519 389.681541,34.6562519 389.493563,34.5309336 L388.741657,33.4970628 C388.678998,33.4344037 388.710327,33.2777582 388.835646,33.0271216 C388.898305,32.9644624 389.05495,32.9957915 389.305587,33.1211098 Z M387.989751,34.0609923 L388.365704,33.9670041 L389.305587,35.8467691 C388.929632,36.0347465 388.47536,36.1287339 387.942757,36.1287339 C387.410155,36.1287339 386.955883,36.0347465 386.579928,35.8467691 L387.51981,33.9670041 C387.582469,34.0296632 387.739115,34.0609923 387.989751,34.0609923 Z M390.057493,32.2752156 L392.219223,31.8992626 C392.219223,32.8391498 391.905932,33.6850356 391.27934,34.4369453 L389.869516,32.9331333 C389.994835,32.6824967 390.057493,32.463193 390.057493,32.2752156 Z M386.297963,30.3954505 L384.512186,29.5495563 C384.512186,29.4868971 384.480857,29.455568 384.418198,29.455568 C385.044789,28.57834 385.828017,28.0144161 386.767904,27.7637795 L387.143857,29.831521 C386.767902,30.0194985 386.48594,30.2074731 386.297963,30.3954505 Z M387.143857,33.4970628 L386.391951,34.5309336 C386.203974,34.718911 386.078657,34.7502401 386.015998,34.6249218 L385.875016,34.3429571 C385.843686,34.2802979 385.859351,34.2176397 385.92201,34.1549806 L386.673916,33.1211098 C386.861893,32.9331324 386.98721,32.8861387 387.049869,32.9801274 C387.112528,33.0741162 387.159522,33.1681035 387.190851,33.2620922 C387.222181,33.3560809 387.206516,33.4344037 387.143857,33.4970628 Z M386.109986,32.9331333 L384.606174,34.4369453 C383.979583,33.6223764 383.666292,32.7764906 383.666292,31.8992626 L383.666292,31.8052743 L385.828022,32.1812273 C385.828022,32.494523 385.922009,32.7451559 386.109986,32.9331333 Z M445.792526,23.8162729 C447.985596,23.8162729 449.881007,24.5995005 451.478815,26.1659792 C453.076623,27.7324579 453.875516,29.6278687 453.875516,31.8522684 C453.875516,34.0766682 453.076623,35.9720789 451.478815,37.5385576 C449.881007,39.1050363 447.985596,39.8882639 445.792526,39.8882639 C443.599456,39.8882639 441.704045,39.1050363 440.106237,37.5385576 C438.508429,35.9720789 437.709536,34.0766682 437.709536,31.8522684 C437.709536,29.6278687 438.508429,27.7324579 440.106237,26.1659792 C441.704045,24.5995005 443.599456,23.8162729 445.792526,23.8162729 Z M445.792526,37.3505811 C447.296346,37.3505811 448.580839,36.8179864 449.646044,35.7527809 C450.71125,34.6875753 451.243845,33.4030821 451.243845,31.8992626 C451.243845,30.395443 450.71125,29.1109498 449.646044,28.0457442 C448.580839,26.9805387 447.296346,26.447944 445.792526,26.447944 C444.288706,26.447944 443.004213,26.9805387 441.939008,28.0457442 C440.873802,29.1109498 440.341207,30.395443 440.341207,31.8992626 C440.341207,33.4030821 440.873802,34.6875753 441.939008,35.7527809 C443.004213,36.8179864 444.288706,37.3505811 445.792526,37.3505811 Z M445.416573,31.8992626 C445.416573,31.648626 445.541889,31.5233095 445.792526,31.5233095 C446.043163,31.5233095 446.168479,31.648626 446.168479,31.8992626 C446.168479,31.9619217 446.13715,32.0402445 446.074491,32.1342332 C446.011832,32.2282219 445.933509,32.2752156 445.83952,32.2752156 C445.745531,32.2752156 445.651544,32.2282219 445.557555,32.1342332 C445.463567,32.0402445 445.416573,31.9619217 445.416573,31.8992626 Z M445.604549,30.0194975 L445.604549,28.7976503 C445.604549,28.6096728 445.698537,28.5156855 445.886514,28.5156855 C446.074492,28.5156855 446.168479,28.6096728 446.168479,28.7976503 L446.168479,30.0194975 C446.168479,30.2701341 446.074492,30.3954505 445.886514,30.3954505 C445.698537,30.3954505 445.604549,30.2701341 445.604549,30.0194975 Z M445.228596,30.4894388 C445.291256,30.5520979 445.338249,30.6147561 445.369579,30.6774153 C445.400908,30.7400744 445.385244,30.8027326 445.322585,30.8653918 C445.322585,31.0533692 445.197268,31.0846983 444.946632,30.95938 C444.758654,30.95938 444.727325,30.8340636 444.852643,30.583427 C444.915303,30.5207679 444.977961,30.4737742 445.04062,30.4424447 C445.103279,30.4111151 445.165937,30.4267796 445.228596,30.4894388 Z M446.356455,30.6774153 C446.419115,30.4894378 446.560096,30.4581087 446.779403,30.583427 C446.99871,30.7087453 447.061368,30.8497263 446.967379,31.0063742 C446.87339,31.163022 446.732409,31.163022 446.544432,31.0063742 C446.356455,30.8497263 446.293796,30.7400744 446.356455,30.6774153 Z M444.288714,31.9932508 C444.476691,31.8052734 444.649001,31.7739443 444.805649,31.8992626 C444.962297,32.0245808 444.977962,32.1655618 444.852643,32.3222097 C444.727325,32.4788575 444.586344,32.5101867 444.429696,32.4161979 C444.273048,32.3222092 444.226055,32.1812282 444.288714,31.9932508 Z M447.20235,31.5233095 C447.20235,31.3979913 447.265008,31.2726748 447.390326,31.1473565 L448.612174,30.7714035 C448.86281,30.7714035 449.003791,30.8183972 449.035121,30.9123859 C449.06645,31.0063746 449.06645,31.1003619 449.035121,31.1943507 C449.003791,31.2883394 448.925468,31.335333 448.80015,31.335333 L447.578303,31.711286 C447.515644,31.7739452 447.452985,31.7739452 447.390326,31.711286 L447.20235,31.5233095 Z M449.270091,29.5495563 L447.484314,30.4894388 C447.296337,30.2388022 447.045704,30.0508276 446.732408,29.9255093 L447.108361,27.7637795 C448.048249,28.1397344 448.800147,28.7349874 449.36408,29.5495563 L449.270091,29.5495563 Z M447.296338,32.4631921 C447.17102,32.5885104 447.061368,32.6198395 446.967379,32.5571803 C446.87339,32.4945212 446.795068,32.431863 446.732408,32.3692038 C446.669749,32.3065447 446.669749,32.2282219 446.732408,32.1342332 C446.795068,32.0402445 446.951713,31.9932508 447.20235,31.9932508 C447.327668,32.1185691 447.358997,32.2752146 447.296338,32.4631921 Z M445.886514,32.8391451 C446.074492,32.9018042 446.105821,33.0271206 445.980502,33.2150981 C445.855184,33.4030755 445.745532,33.4657337 445.651544,33.4030746 C445.557555,33.3404154 445.494897,33.2777572 445.463567,33.2150981 C445.432238,33.1524389 445.447902,33.0741162 445.510561,32.9801274 C445.57322,32.8861387 445.635879,32.8234805 445.698538,32.7921509 C445.761197,32.7608214 445.823855,32.7764859 445.886514,32.8391451 Z M444.006749,31.6172978 L442.784902,31.2413448 C442.659584,31.1160265 442.628255,30.9750455 442.690914,30.8183977 C442.753573,30.6617498 442.84756,30.583427 442.972878,30.583427 L444.194726,31.0533683 C444.320044,31.0533683 444.398367,31.0846974 444.429696,31.1473565 C444.461026,31.2100157 444.429697,31.304003 444.335708,31.4293213 C444.241719,31.5546396 444.132067,31.6172978 444.006749,31.6172978 Z M447.108361,33.1211098 L447.860268,34.1549806 C447.922927,34.2176397 447.938591,34.2802979 447.907262,34.3429571 L447.766279,34.6249218 C447.70362,34.7502401 447.578304,34.718911 447.390326,34.5309336 L446.63842,33.4970628 C446.513102,33.3717445 446.513102,33.215099 446.63842,33.0271216 C446.826398,32.9644624 446.983043,32.9957915 447.108361,33.1211098 Z M445.792526,34.0609923 L446.262467,33.9670041 L447.20235,35.8467691 C446.763736,36.0347465 446.309464,36.1287339 445.83952,36.1287339 C445.369576,36.1287339 444.883975,36.0347465 444.382702,35.8467691 L445.322585,33.9670041 C445.447903,34.0296632 445.604549,34.0609923 445.792526,34.0609923 Z M447.672291,32.9331333 L447.954256,32.2752156 L450.021997,31.8992626 C450.021997,32.9018089 449.740035,33.7476947 449.176103,34.4369453 L447.672291,32.9331333 Z M444.194726,30.3954505 L442.314961,29.5495563 L442.314961,29.455568 C443.004211,28.57834 443.787439,28.0144161 444.664667,27.7637795 L444.946632,29.831521 C444.570677,30.0821576 444.320044,30.2701322 444.194726,30.3954505 Z M444.946632,33.4970628 L444.288714,34.5309336 C444.163396,34.6562519 444.022415,34.6405873 443.865767,34.4839395 C443.709119,34.3272916 443.662125,34.2176397 443.724784,34.1549806 L444.47669,33.1211098 C444.602009,32.9957915 444.727325,32.9644624 444.852643,33.0271216 C444.977962,33.0897807 445.04062,33.1681035 445.04062,33.2620922 C445.04062,33.3560809 445.009291,33.4344037 444.946632,33.4970628 Z M443.630796,32.1812273 L443.912761,32.9331333 L442.408949,34.4369453 C441.845017,33.6850356 441.563055,32.8391498 441.563055,31.8992626 L441.563055,31.8052743 L443.630796,32.1812273 Z" id="4"></path>
            </g>
        </g>
    </g>
</svg>